<svg width="40" height="36" viewBox="0 0 40 36" fill="none" xmlns="http://www.w3.org/2000/svg">
<path d="M29.9784 0C25.2381 8.5275 22.619 12.78 19.9784 12.78C17.3377 12.78 14.7186 8.5275 10 0C14.7186 8.5275 16.9697 13.0275 15.6494 15.39C14.329 17.7525 9.45887 18 0 18C9.80519 18 14.6753 18.2475 15.7792 20.8575C16.8182 23.2875 14.5671 27.765 10 36C14.7403 27.4725 17.3593 23.22 20 23.22C22.6407 23.22 25.2597 27.4725 30 36C24.9784 26.9325 22.7706 22.4325 24.632 20.1825C26.2771 18.2025 31.1255 18 40 18C30 18 25.1299 17.73 24.1558 14.9625C23.2684 12.4875 25.5195 8.0325 29.9784 0Z" fill="white"/>
</svg>
